<svg id="logo-svg" xmlns="http://www.w3.org/2000/svg" width="1.70833in" height="1.56944in" viewBox="0 0 123 113">
    <style>
        #logo-svg path {
            fill:#f5f5f5;
            opacity:0.7;
        }
    </style>
    <path fill="white" stroke="white" stroke-width="1" d="M 78.50,28.88            C 75.87,25.22 71.33,20.82 60.88,21.00              27.25,21.50 39.50,70.38 18.12,69.62              26.88,79.50 55.52,89.35 71.25,84.62              58.88,81.62 59.75,67.12 69.62,64.12              79.50,61.12 88.62,68.50 83.50,79.00              96.25,76.38 108.08,42.17 84.75,35.75              87.60,30.41 90.61,25.44 93.62,24.38              90.75,22.50 92.00,13.62 88.75,12.50              85.38,44.00 69.88,49.50 69.88,49.50              70.43,49.10 82.12,33.62 78.50,28.88 Z"/>
</svg>